<svg width="121" height="30" fill="none" xmlns="http://www.w3.org/2000/svg" id="svg-653693363_2030"><path d="M7.714 29h4.56l7.828-18.772h-4.788l-3.42 8.626c-.798 2.052-1.482 4.028-1.748 5.206-.228-1.026-.874-2.964-1.672-5.206l-3.268-8.626H.266L7.714 29ZM23.565 6.466c1.52 0 2.774-1.254 2.774-2.812A2.765 2.765 0 0 0 23.565.88c-1.596 0-2.85 1.216-2.85 2.774s1.254 2.812 2.85 2.812ZM21.247 29h4.636V10.228h-4.636V29Zm12.2 0 .304-2.926c1.102 2.166 3.496 3.42 6.308 3.42 5.396 0 8.93-3.99 8.93-9.766 0-5.928-3.268-10.108-8.626-10.108-2.85 0-5.358 1.254-6.574 3.344V.728h-4.636V29h4.294Zm.38-9.462c0-3.382 2.09-5.738 5.282-5.738 3.268 0 5.206 2.394 5.206 5.738 0 3.344-1.938 5.7-5.206 5.7-3.192 0-5.282-2.318-5.282-5.7Zm29.113-9.386a8.225 8.225 0 0 0-2.052-.266c-2.508 0-4.294 1.254-5.092 3.116l-.266-2.736h-4.37V29h4.636v-9.12c0-3.648 2.09-5.434 5.434-5.434h1.71v-4.294Zm6.462 19.342c2.926 0 5.472-1.33 6.27-3.268L76.014 29h4.066V17.6c0-5.206-3.116-7.942-8.17-7.942-5.092 0-8.436 2.66-8.436 6.726h3.952c0-1.976 1.52-3.116 4.256-3.116 2.356 0 3.876 1.026 3.876 3.572v.418l-5.624.418c-4.446.342-6.954 2.508-6.954 5.966 0 3.534 2.432 5.852 6.422 5.852Zm1.52-3.496c-2.09 0-3.23-.836-3.23-2.546 0-1.52 1.102-2.47 3.99-2.736l3.914-.304v.988c0 2.888-1.824 4.598-4.674 4.598ZM87.75 29V18.892c0-3.04 1.748-5.016 4.598-5.016 2.394 0 3.952 1.52 3.952 4.674V29h4.636V17.448c0-4.864-2.432-7.79-7.144-7.79-2.546 0-4.826 1.102-6.004 3.002l-.38-2.432h-4.294V29h4.636Zm22.605 0V14.104h3.648v-3.876h-3.648V4.376h-4.636v5.852h-3.61v3.876h3.61V29h4.636Zm6.976.456c1.672 0 3.078-1.368 3.078-3.002 0-1.672-1.406-3.04-3.078-3.04s-3.078 1.368-3.078 3.04c0 1.634 1.406 3.002 3.078 3.002Z" fill="url(#svg-653693363_2030_a)"></path><defs><radialGradient id="svg-653693363_2030_a" cx="0" cy="0" r="1" gradientUnits="userSpaceOnUse" gradientTransform="matrix(-97.27055 -21.7675 69.57597 -310.90814 114.214 33.158)"><stop stop-color="#fff"></stop><stop offset=".15" stop-color="#63FFD1"></stop><stop offset=".446" stop-color="#BF9DFF"></stop><stop offset=".682" stop-color="#FFEA22"></stop><stop offset="1" stop-color="#fff"></stop></radialGradient></defs></svg>