<svg width="97" height="35" viewBox="0 0 97 35" fill="none" xmlns="http://www.w3.org/2000/svg" id="svg1121089213_3903">
<g clip-path="url(#svg1121089213_3903_clip0_63_1921)">
<path d="M0.616211 1.42517H21.3913V11.8127H11.0038L0.616211 1.42517ZM0.616211 11.8127H11.0038L21.3913 22.2003H0.616211V11.8127ZM0.616211 22.2003H11.0038V32.5878L0.616211 22.2003Z" fill="white"></path>
<path d="M33.1133 9.61993H41.511V12.2885H36.2918V15.9968H41.511V18.6064H36.2918V23.3547H33.1133V9.61993ZM43.2376 13.8972H46.2397V15.879C46.3966 15.1979 46.7173 14.6752 47.2011 14.3092C47.6973 13.9295 48.2481 13.7404 48.8493 13.7404C49.1635 13.7404 49.4253 13.767 49.634 13.8188V16.6052C49.3345 16.569 49.0332 16.5496 48.7315 16.5462C47.9074 16.5462 47.2867 16.8138 46.8675 17.3504C46.4498 17.8736 46.2397 18.6582 46.2397 19.7052V23.3547H43.239V13.8972H43.2376ZM54.3731 23.6099C53.4578 23.6099 52.6594 23.3936 51.9793 22.9621C51.3121 22.5306 50.7817 21.918 50.449 21.1961C50.0959 20.4381 49.9182 19.5802 49.9182 18.6259C49.9182 17.684 50.1026 16.8333 50.4685 16.0753C50.8116 15.3429 51.3563 14.7236 52.0382 14.2897C52.7307 13.8582 53.5225 13.642 54.4126 13.642C55.0794 13.642 55.6753 13.7865 56.1981 14.074C56.7209 14.3625 57.1134 14.755 57.3753 15.2512V13.8972H60.3575V23.3547H57.3753V22.0202C57.1134 22.4911 56.7081 22.8766 56.1587 23.1779C55.6093 23.4692 54.9953 23.6175 54.3731 23.6099ZM55.2367 21.1177C55.9557 21.1177 56.5118 20.8824 56.9043 20.4114C57.2969 19.9405 57.4932 19.345 57.4932 18.6259C57.4932 17.9197 57.2969 17.3309 56.9043 16.8599C56.5118 16.3889 55.9557 16.1537 55.2367 16.1537C54.5556 16.1537 54.0072 16.3823 53.5885 16.8404C53.1831 17.2986 52.9802 17.8931 52.9802 18.6259C52.9802 19.3588 53.1831 19.96 53.5885 20.4309C54.0072 20.8891 54.5566 21.1177 55.2367 21.1177ZM62.4572 13.8972H65.4593V15.2707C65.6694 14.7859 66.0087 14.3933 66.4792 14.0935C66.964 13.7936 67.5262 13.642 68.1668 13.642C69.6581 13.642 70.6462 14.2237 71.1295 15.3885C71.3957 14.8605 71.812 14.4238 72.3267 14.1329C72.877 13.8017 73.5091 13.632 74.1512 13.642C76.3882 13.642 77.5064 14.9232 77.5064 17.4877V23.3547H74.4848V18.0371C74.4848 17.3969 74.3669 16.926 74.1317 16.6246C73.896 16.3243 73.5428 16.1732 73.0719 16.1732C72.5619 16.1732 72.1694 16.3499 71.8947 16.7031C71.62 17.0433 71.4826 17.6379 71.4826 18.4886V23.3547H68.461V18.0176C68.461 17.377 68.3436 16.9122 68.1079 16.6246C67.8864 16.3243 67.539 16.1732 67.069 16.1732C66.5453 16.1732 66.146 16.3499 65.8714 16.7031C65.5967 17.0433 65.4593 17.6379 65.4593 18.4886V23.3547H62.4581V13.8972H62.4572ZM88.7841 18.1355C88.7841 18.5404 88.7575 18.979 88.7043 19.45H81.7205C81.7471 20.065 81.9557 20.535 82.3483 20.8629C82.7408 21.1894 83.2717 21.3534 83.9375 21.3534C84.8666 21.3534 85.4555 21.0716 85.7035 20.5093H88.6468C88.5023 21.4385 87.9924 22.1898 87.116 22.7658C86.2529 23.3281 85.1931 23.6099 83.9375 23.6099C82.316 23.6099 81.0404 23.1712 80.1113 22.2949C79.1959 21.418 78.7378 20.1957 78.7378 18.6259C78.7378 17.6056 78.9469 16.7225 79.3656 15.9769C79.77 15.2322 80.3936 14.6295 81.1511 14.2503C81.9234 13.8454 82.8193 13.642 83.8406 13.642C84.8077 13.642 85.6641 13.8316 86.4098 14.2113C87.1683 14.591 87.7509 15.1205 88.1558 15.8006C88.575 16.4816 88.7841 17.2596 88.7841 18.1355ZM85.82 17.5861C85.8072 16.9583 85.6308 16.4802 85.2901 16.1537C84.9508 15.8272 84.4593 15.6632 83.8187 15.6632C83.1781 15.6632 82.6681 15.8395 82.2884 16.1931C81.9225 16.5334 81.7328 16.9972 81.719 17.5861H85.82ZM90.1077 13.8972H93.1098V15.879C93.2667 15.1979 93.5875 14.6752 94.0713 14.3092C94.5408 13.9395 95.1216 13.7389 95.7194 13.7404C96.0331 13.7404 96.2954 13.767 96.5041 13.8188V16.6052C96.2047 16.569 95.9034 16.5496 95.6016 16.5462C94.7775 16.5462 94.1568 16.8138 93.7377 17.3504C93.3185 17.8736 93.1098 18.6582 93.1098 19.7052V23.3547H90.1077V13.8972Z" fill="white"></path>
</g>
<defs>
<clipPath id="svg1121089213_3903_clip0_63_1921">
<rect width="96.2382" height="34.218" fill="white" transform="translate(0.616211)"></rect>
</clipPath>
</defs>
</svg>