<svg width="125" height="36" viewBox="0 0 125 36" fill="none" xmlns="http://www.w3.org/2000/svg" id="svg-1505681978_11954">
<g clip-path="url(#svg-1505681978_11954_clip0_63_1926)">
<path fill-rule="evenodd" clip-rule="evenodd" d="M57.123 22.8329C56.2657 23.0306 55.8222 22.7668 55.8222 22.1989C55.8222 21.4208 56.6267 21.1094 57.776 21.1094C58.2815 21.1094 58.7584 21.153 58.7584 21.153C58.7584 21.4861 58.0346 22.6227 57.123 22.8329ZM57.9954 15.0428C55.251 15.0428 53.2806 16.052 53.2806 16.052V19.0187C53.2806 19.0187 55.456 17.7681 57.221 17.7681C58.6289 17.7681 58.8021 18.5278 58.7383 19.1581C58.7383 19.1581 58.3318 19.0506 57.0926 19.0506C54.1713 19.0506 52.6973 20.3782 52.6973 22.5067C52.6973 24.5259 54.354 25.3696 55.7503 25.3696C57.787 25.3696 58.6829 24.0005 58.9576 23.3512C59.1488 22.9007 59.184 22.597 59.3549 22.597C59.5512 22.597 59.4852 22.8149 59.4753 23.2632C59.4591 24.0486 59.4966 24.6422 59.6209 25.1426H62.322V20.284C62.322 17.2505 61.2486 15.0428 57.9954 15.0428Z" fill="white"></path>
<path fill-rule="evenodd" clip-rule="evenodd" d="M75.7734 20.2111C75.7734 19.3237 76.5984 18.5155 78.1128 18.5155C79.7625 18.5155 81.0902 19.3101 81.3877 19.4906V16.0562C81.3877 16.0562 80.3392 15.0466 77.7621 15.0466C75.0455 15.0466 72.7832 16.6361 72.7832 20.0578C72.7832 23.479 74.8364 25.3764 77.7547 25.3764C80.0347 25.3764 81.3935 24.1236 81.3935 24.1236V20.8619C80.9636 21.1022 79.7658 21.9339 78.1293 21.9339C76.3967 21.9339 75.7734 21.1363 75.7734 20.2111ZM39.6714 15.2715C39.6718 15.2737 39.8438 16.0118 39.6171 16.977C39.5016 17.4678 39.2892 17.8853 39.5456 17.8853C39.7224 17.8853 39.7228 17.7385 39.9528 17.2125C40.2892 16.4435 40.9983 15.044 42.6554 15.044C44.2307 15.044 44.9728 16.0011 45.2186 16.8973C45.4057 17.5782 45.2421 17.8853 45.4703 17.8853C45.6324 17.8853 45.6885 17.532 45.8881 17.0852C46.2465 16.2847 47.0261 15.044 48.6028 15.044C50.9818 15.044 51.8902 16.762 51.8902 19.3391V25.146H48.3559V19.7925C48.3559 18.9 48.2118 18.0342 47.3981 18.0342C46.6442 18.0342 46.2927 19.3703 46.2927 20.2328V25.1482H42.6936V19.7929C42.6936 18.6509 42.5325 18.0346 41.7298 18.0346C41.035 18.0346 40.6296 19.2639 40.6296 20.2331V25.1464H37.0448V15.2715H39.6714ZM63.4985 15.285C63.5 15.2858 64.11 15.6376 65.2942 15.6376C66.4806 15.6376 67.083 15.285 67.083 15.285V25.1486H63.4985V15.285ZM93.0921 15.285C93.0936 15.2858 93.7036 15.6376 94.8882 15.6376C96.0742 15.6376 96.677 15.285 96.677 15.285V25.1486H93.0921V15.285ZM71.8279 12.282V25.1486H68.243V12.282H71.8279ZM85.6479 12.282C85.6483 12.2831 85.7965 12.6529 85.7965 13.7527C85.7965 15.3767 85.4432 16.6985 85.2763 17.2022C85.1879 17.4689 85.0302 17.8805 85.2565 17.8878C85.3871 17.8919 85.4656 17.6952 85.6256 17.3541C85.7848 17.0125 86.5742 15.0462 88.6492 15.0462C91.5073 15.0462 91.9277 17.3867 91.9277 19.9213V25.1482H88.3428V19.7067C88.3428 18.5907 88.1088 18.0364 87.3608 18.0364C86.4576 18.0364 86.1384 19.4349 86.1384 20.2353V25.1482H82.5535V12.2816L85.6479 12.282ZM100.515 15.2715C100.515 15.2737 100.687 16.0118 100.46 16.977C100.345 17.4678 100.132 17.8853 100.389 17.8853C100.566 17.8853 100.566 17.7385 100.796 17.2125C101.132 16.4435 101.842 15.044 103.499 15.044C105.146 15.044 105.799 16.0055 106.062 16.8973C106.238 17.4949 106.085 17.8853 106.313 17.8853C106.476 17.8853 106.532 17.532 106.731 17.0852C107.089 16.2847 107.869 15.044 109.446 15.044C111.825 15.044 112.733 16.762 112.733 19.3391V25.146H109.199V19.7925C109.199 18.9 109.055 18.0342 108.241 18.0342C107.487 18.0342 107.136 19.3703 107.136 20.2328V25.1482H103.536V19.7929C103.536 18.6509 103.376 18.0346 102.573 18.0346C101.878 18.0346 101.473 19.2639 101.473 20.2331V25.1464H97.888V15.2715H100.515ZM65.2799 12.1822C64.0686 12.1822 63.0858 12.8234 63.0858 13.6144C63.0858 14.4053 64.0682 15.0466 65.2799 15.0466C66.492 15.0466 67.4744 14.4053 67.4744 13.6144C67.4744 12.8234 66.4924 12.1822 65.2799 12.1822ZM94.8739 12.1822C93.6622 12.1822 92.6794 12.8234 92.6794 13.6144C92.6794 14.4053 93.6618 15.0466 94.8739 15.0466C96.0856 15.0466 97.0684 14.4053 97.0684 13.6144C97.0684 12.8234 96.086 12.1822 94.8739 12.1822Z" fill="white"></path>
<path fill-rule="evenodd" clip-rule="evenodd" d="M118.84 23.0207C118.018 23.0207 117.414 21.9785 117.414 20.5261C117.414 19.1156 118.034 18.0322 118.812 18.0322C119.808 18.0322 120.234 18.9468 120.234 20.5261C120.234 22.1692 119.842 23.0207 118.84 23.0207ZM119.823 15.0406C117.981 15.0406 117.137 16.4218 116.77 17.2087C116.527 17.7285 116.54 17.8815 116.362 17.8815C116.107 17.8815 116.319 17.464 116.434 16.9731C116.662 16.0065 116.489 15.268 116.489 15.268H113.864V27.8668H117.447V23.8725C117.871 24.5919 118.656 25.3605 119.867 25.3605C122.459 25.3605 123.763 23.1678 123.763 20.2055C123.763 16.848 122.202 15.0406 119.824 15.0406" fill="white"></path>
<path fill-rule="evenodd" clip-rule="evenodd" d="M24.3724 18.0217C24.6134 17.9931 24.8441 17.9916 25.0565 18.0217C25.1794 17.7399 25.2003 17.2546 25.0899 16.7259C24.9259 15.9401 24.7036 15.4647 24.2443 15.5388C23.785 15.6129 23.7681 16.1823 23.9325 16.9677C24.0249 17.4098 24.1893 17.7876 24.3724 18.0217Z" fill="white"></path>
<path fill-rule="evenodd" clip-rule="evenodd" d="M20.432 18.6435C20.7603 18.7877 20.9624 18.8834 21.0413 18.7998C21.0923 18.7477 21.0769 18.6483 20.9984 18.5203C20.8362 18.2558 20.5028 17.9872 20.1487 17.8364C19.4253 17.525 18.5621 17.6284 17.8963 18.1068C17.6765 18.2679 17.4682 18.4909 17.4979 18.6263C17.5074 18.6699 17.5404 18.7029 17.6175 18.714C17.7987 18.7345 18.4319 18.4146 19.1615 18.3698C19.6762 18.3383 20.1033 18.4993 20.432 18.6435Z" fill="white"></path>
<path fill-rule="evenodd" clip-rule="evenodd" d="M19.7725 19.0207C19.3444 19.0882 19.1085 19.2294 18.957 19.3604C18.8279 19.4734 18.7479 19.5985 18.7486 19.6861C18.749 19.728 18.767 19.7522 18.7813 19.7643C18.8007 19.7815 18.8238 19.7911 18.8517 19.7911C18.9482 19.7911 19.165 19.7041 19.165 19.7041C19.7604 19.491 20.1533 19.517 20.5425 19.561C20.7575 19.5853 20.8595 19.5985 20.9064 19.5247C20.9204 19.5035 20.9373 19.4576 20.8943 19.3879C20.7942 19.2254 20.3617 18.9506 19.7725 19.0207Z" fill="white"></path>
<path fill-rule="evenodd" clip-rule="evenodd" d="M23.0427 20.4045C23.3332 20.5472 23.6531 20.4911 23.7573 20.2794C23.8615 20.0678 23.7104 19.7802 23.4198 19.6375C23.1293 19.4948 22.8094 19.5509 22.7052 19.7625C22.601 19.9746 22.7521 20.2618 23.0427 20.4045Z" fill="white"></path>
<path fill-rule="evenodd" clip-rule="evenodd" d="M24.911 18.7725C24.6751 18.7685 24.4792 19.0275 24.4737 19.3514C24.4682 19.6753 24.6553 19.9406 24.8911 19.9446C25.127 19.9486 25.3229 19.6896 25.3284 19.3657C25.3339 19.0422 25.1468 18.7766 24.911 18.7725Z" fill="white"></path>
<path fill-rule="evenodd" clip-rule="evenodd" d="M9.05564 24.6089C8.99694 24.5352 8.90046 24.5576 8.80691 24.5796C8.74161 24.595 8.66787 24.6119 8.5868 24.6108C8.41328 24.6075 8.26617 24.5334 8.18363 24.4064C8.07614 24.2414 8.08238 23.9952 8.20087 23.7135L8.25626 23.5873C8.44556 23.1624 8.76216 22.4518 8.40668 21.7746C8.13887 21.2647 7.70232 20.9474 7.17735 20.8806C6.6733 20.8168 6.15457 21.0035 5.82367 21.3685C5.30164 21.9445 5.21983 22.7285 5.32071 23.0054C5.35776 23.1067 5.41573 23.1349 5.45755 23.1408C5.54633 23.1525 5.67766 23.088 5.75983 22.8668L5.78331 22.7949C5.82 22.6778 5.88823 22.4599 6.00012 22.2853C6.13512 22.0747 6.34496 21.9298 6.59149 21.8766C6.84242 21.8227 7.09921 21.8708 7.31419 22.0116C7.67994 22.2508 7.82081 22.6991 7.66453 23.1265C7.58383 23.3477 7.45249 23.7707 7.48147 24.1181C7.54017 24.8213 7.97269 25.1038 8.36118 25.1339C8.73904 25.1482 9.00318 24.9358 9.06994 24.781C9.1092 24.6893 9.07618 24.6335 9.05453 24.6097" fill="white"></path>
<path fill-rule="evenodd" clip-rule="evenodd" d="M12.6496 11.6922C13.8822 10.2681 15.3991 9.02993 16.7583 8.33474C16.8053 8.31053 16.8551 8.36153 16.8298 8.40775C16.722 8.60328 16.514 9.02185 16.4483 9.33918C16.438 9.38871 16.492 9.42576 16.5338 9.39752C17.3794 8.82119 18.8501 8.20341 20.1403 8.12417C20.1957 8.12087 20.2225 8.19167 20.1785 8.22579C19.9822 8.3762 19.7676 8.58457 19.6109 8.79514C19.5842 8.8311 19.6095 8.88246 19.6542 8.88282C20.56 8.88943 21.837 9.20639 22.6694 9.67339C22.7255 9.70494 22.6855 9.81389 22.6224 9.79958C21.363 9.51087 19.3017 9.29186 17.16 9.81426C15.2483 10.2805 13.789 11.0007 12.7248 11.7747C12.6708 11.814 12.6059 11.7424 12.6496 11.6922ZM18.7877 25.4902L18.7881 25.491L18.7888 25.4924L18.7877 25.4902ZM23.8701 26.09C23.9068 26.0746 23.9317 26.0332 23.9277 25.9917C23.9226 25.9407 23.8771 25.9037 23.8261 25.9088C23.8261 25.9088 21.1961 26.298 18.7114 25.3886C18.9822 24.5089 19.7015 24.8266 20.7893 24.9143C22.7497 25.0313 24.507 24.7448 25.8056 24.3721C26.9307 24.0492 28.4088 23.4124 29.5567 22.5063C29.9437 23.3566 30.0805 24.2928 30.0805 24.2928C30.0805 24.2928 30.3803 24.2393 30.6308 24.3933C30.8674 24.539 31.041 24.8416 30.9225 25.6245C30.6811 27.0868 30.0596 28.2739 29.0148 29.366C28.3787 30.0506 27.6069 30.6456 26.7235 31.0785C26.2543 31.325 25.755 31.5382 25.2271 31.7102C21.2886 32.9968 17.2568 31.5825 15.9575 28.5457C15.8536 28.3176 15.766 28.0784 15.697 27.8285C15.1434 25.8274 15.6133 23.4263 17.083 21.9149C17.1736 21.8188 17.266 21.7047 17.266 21.562C17.266 21.4427 17.1901 21.3169 17.1244 21.2274C16.6101 20.4816 14.829 19.2108 15.1867 16.7514C15.4435 14.9847 16.9887 13.7403 18.4293 13.8141L18.7943 13.835C19.4187 13.872 19.9631 13.952 20.4771 13.9736C21.3373 14.0111 22.1107 13.886 23.0271 13.1225C23.336 12.865 23.584 12.6416 24.0033 12.5708C24.0473 12.5631 24.157 12.5238 24.376 12.5341C24.5998 12.5462 24.8125 12.6075 25.0037 12.7348C25.7381 13.2234 25.8423 14.4073 25.8804 15.273C25.9021 15.7672 25.9619 16.9631 25.9824 17.3065C26.029 18.0915 26.2356 18.202 26.653 18.3395C26.8878 18.4169 27.1057 18.4745 27.4271 18.5648C28.3993 18.8377 28.9756 19.1147 29.3391 19.4705C29.5559 19.6929 29.6568 19.9291 29.688 20.1544C29.8025 20.9908 29.0387 22.0238 27.0162 22.9626C24.8056 23.9887 22.1235 24.2484 20.2705 24.0419L19.6212 23.9685C18.1391 23.769 17.2935 25.6843 18.1832 26.9969C18.7565 27.8429 20.3182 28.3931 21.8807 28.3935C25.463 28.3939 28.2166 26.8641 29.2408 25.5431L29.3226 25.4264C29.3732 25.3505 29.3314 25.3086 29.2687 25.3516C28.4319 25.9242 24.715 28.1976 20.739 27.5134C20.739 27.5134 20.2559 27.4338 19.8149 27.2625C19.4646 27.126 18.7309 26.7885 18.6417 26.0361C21.8502 27.0284 23.8701 26.09 23.8701 26.09ZM6.24688 18.465C5.13091 18.6818 4.14738 19.3143 3.54611 20.1881C3.1866 19.8884 2.51709 19.308 2.39859 19.0817C1.43854 17.2584 3.44632 13.7139 4.84917 11.712C8.31592 6.76498 13.7453 3.02052 16.2586 3.69993C16.6673 3.81549 18.0206 5.38451 18.0206 5.38451C18.0206 5.38451 15.5081 6.77855 13.1782 8.72177C10.0387 11.139 7.6677 14.6523 6.24688 18.465ZM8.12186 26.8311C7.9531 26.8601 7.78069 26.8714 7.6068 26.867C5.92772 26.8219 4.11436 25.3105 3.93424 23.518C3.73504 21.5367 4.74755 20.012 6.53999 19.6503C6.75423 19.607 7.01323 19.5821 7.2924 19.5967C8.29684 19.6518 9.77673 20.4229 10.1146 22.6108C10.414 24.5485 9.93851 26.5215 8.12186 26.8311ZM30.8652 23.3225C30.8509 23.2715 30.757 22.9292 30.6283 22.5165C30.4995 22.1035 30.3663 21.8133 30.3663 21.8133C30.8828 21.0403 30.892 20.3488 30.8231 19.9574C30.7497 19.472 30.5475 19.0586 30.1403 18.6308C29.7331 18.2034 28.9 17.7654 27.7294 17.4367L27.1153 17.2661C27.1123 17.2408 27.083 15.8182 27.0566 15.2074C27.0371 14.7657 26.9993 14.0763 26.7855 13.3977C26.5305 12.4787 26.0866 11.6746 25.5323 11.1602C27.0621 9.5747 28.017 7.82775 28.0144 6.32953C28.01 3.4479 24.471 2.5759 20.1095 4.38191L19.1854 4.77408C19.1814 4.77004 17.5147 3.13498 17.4898 3.11297C12.5171 -1.22433 -3.03009 16.057 1.9404 20.2541L3.02665 21.1746C2.7449 21.9046 2.63411 22.741 2.72473 23.6402C2.84065 24.7954 3.43642 25.9026 4.40234 26.7581C5.31911 27.5703 6.52458 28.0846 7.69411 28.0835C9.62852 32.5411 14.0484 35.2757 19.2305 35.4297C24.7894 35.5948 29.4558 32.9865 31.4111 28.301C31.5391 27.9723 32.0817 26.4906 32.0817 25.1824C32.0817 23.868 31.3385 23.3225 30.8652 23.3225Z" fill="white"></path>
</g>
<defs>
<clipPath id="svg-1505681978_11954_clip0_63_1926">
<rect width="123.263" height="35.218" fill="white" transform="translate(0.972656 0.5)"></rect>
</clipPath>
</defs>
</svg>